<?xml version="1.0" standalone="no"?>
<!DOCTYPE svg PUBLIC "-//W3C//DTD SVG 20010904//EN"
 "http://www.w3.org/TR/2001/REC-SVG-20010904/DTD/svg10.dtd">
<svg version="1.0" xmlns="http://www.w3.org/2000/svg"
 width="180.000000pt" height="180.000000pt" viewBox="0 0 180.000000 180.000000"
 preserveAspectRatio="xMidYMid meet">
<metadata>
Created by potrace 1.14, written by Peter Selinger 2001-2017
</metadata>
<g transform="translate(0.000000,180.000000) scale(0.100000,-0.100000)"
fill="#000000" stroke="none">
<path d="M70 975 l0 -175 370 0 370 0 0 175 0 175 -370 0 -370 0 0 -175z m528
117 c2 -15 -3 -21 -20 -24 -34 -5 -37 -38 -3 -38 22 0 26 -4 23 -22 -2 -15
-11 -24 -25 -26 -22 -3 -23 -8 -23 -78 l0 -75 -27 3 c-27 3 -28 5 -31 76 -2
39 -7 72 -12 72 -6 0 -10 11 -10 25 0 14 5 25 10 25 6 0 10 8 10 18 0 29 28
60 58 65 39 6 47 3 50 -21z m-266 1 c10 -9 18 -29 18 -45 0 -24 -4 -28 -28
-28 -16 0 -35 9 -46 21 -14 17 -25 20 -54 16 -45 -8 -52 -19 -52 -87 0 -65 11
-80 60 -80 37 0 60 14 60 37 0 8 -12 13 -30 13 -25 0 -30 4 -30 25 0 24 3 25
60 25 l60 0 0 -58 c0 -85 -11 -96 -107 -100 -73 -4 -82 -2 -109 21 -28 25 -29
28 -29 117 0 88 1 93 28 116 24 21 38 24 104 24 57 0 81 -4 95 -17z m108 -9
c0 -22 -4 -25 -27 -22 -20 2 -29 9 -31 26 -3 19 1 22 27 22 27 0 31 -4 31 -26z
m260 -34 c0 -16 7 -20 36 -20 31 0 35 -3 32 -22 -2 -18 -11 -24 -35 -26 -32
-3 -33 -4 -33 -53 0 -37 4 -49 15 -49 8 0 15 7 15 15 0 9 9 15 25 15 29 0 33
-24 9 -58 -11 -17 -25 -22 -58 -22 -23 0 -47 5 -54 12 -7 7 -12 39 -12 74 0
46 -4 63 -15 68 -8 3 -15 15 -15 26 0 11 7 20 15 20 8 0 15 9 15 20 0 16 7 20
30 20 23 0 30 -4 30 -20z m-260 -121 l0 -100 -27 3 c-28 3 -28 4 -31 87 -3
100 0 111 33 111 l25 0 0 -101z"/>
<path d="M860 1095 c0 -11 11 -15 40 -15 l40 0 0 -125 c0 -104 2 -125 15 -125
13 0 15 21 15 125 l0 125 45 0 c33 0 45 4 45 15 0 12 -18 15 -100 15 -82 0
-100 -3 -100 -15z"/>
<path d="M1090 970 l0 -140 85 0 c69 0 85 3 85 15 0 12 -14 15 -70 15 l-70 0
0 50 0 50 65 0 c51 0 65 3 65 15 0 12 -14 15 -65 15 l-65 0 0 45 0 45 70 0
c56 0 70 3 70 15 0 12 -16 15 -85 15 l-85 0 0 -140z"/>
<path d="M1310 1090 c-17 -17 -20 -33 -20 -115 0 -88 2 -98 25 -120 20 -21 34
-25 82 -25 75 0 103 18 103 66 0 43 -22 42 -30 -2 -5 -28 -7 -29 -68 -32 -59
-3 -63 -2 -72 23 -6 15 -10 59 -10 99 0 84 8 95 68 103 46 6 82 -10 82 -37 0
-11 7 -20 15 -20 19 0 19 30 -1 58 -13 19 -24 22 -85 22 -56 0 -73 -4 -89 -20z"/>
<path d="M1540 970 c0 -118 2 -140 15 -140 12 0 15 14 15 65 l0 65 75 0 74 0
3 -62 c2 -38 8 -63 16 -66 9 -3 12 29 12 137 0 119 -2 141 -15 141 -12 0 -15
-13 -15 -60 l0 -60 -75 0 -75 0 0 60 c0 47 -3 60 -15 60 -13 0 -15 -22 -15
-140z"/>
<path d="M70 720 c0 -37 2 -40 28 -39 16 1 20 3 10 6 -10 2 -18 11 -18 19 0 8
8 14 18 15 14 0 14 2 -3 9 -17 7 -17 9 -2 9 27 1 20 21 -8 21 -22 0 -25 -4
-25 -40z"/>
<path d="M151 718 c1 -40 2 -41 8 -13 l8 30 13 -27 c20 -42 40 -36 40 12 0 22
-4 40 -10 40 -5 0 -10 -10 -10 -22 l0 -22 -16 22 c-23 33 -34 27 -33 -20z"/>
<path d="M250 720 c0 -39 1 -41 28 -38 24 3 27 7 27 38 0 31 -3 35 -27 38 -27
3 -28 1 -28 -38z m50 0 c0 -13 -7 -20 -20 -20 -13 0 -20 7 -20 20 0 13 7 20
20 20 13 0 20 -7 20 -20z"/>
<path d="M340 720 c0 -22 5 -40 10 -40 6 0 10 18 10 40 0 22 -4 40 -10 40 -5
0 -10 -18 -10 -40z"/>
<path d="M391 718 c1 -35 2 -38 8 -18 l7 25 15 -22 c22 -36 39 -28 39 17 0 22
-4 40 -10 40 -5 0 -10 -12 -10 -27 l-1 -28 -15 28 c-21 39 -34 33 -33 -15z"/>
<path d="M494 746 c-3 -8 -4 -25 -2 -38 4 -29 51 -33 56 -5 2 10 -3 17 -12 17
-9 0 -15 -4 -13 -9 1 -5 -2 -10 -8 -10 -5 -1 -12 8 -13 20 -3 19 0 21 23 15
20 -5 26 -3 23 6 -7 19 -47 22 -54 4z"/>
<path d="M620 720 c0 -39 2 -41 26 -38 57 7 57 69 0 76 -24 3 -26 1 -26 -38z
m50 0 c0 -11 -7 -20 -15 -20 -8 0 -15 9 -15 20 0 11 7 20 15 20 8 0 15 -9 15
-20z"/>
<path d="M723 720 c0 -25 2 -35 4 -22 2 12 2 32 0 45 -2 12 -4 2 -4 -23z"/>
<path d="M764 746 c-12 -32 0 -61 29 -64 22 -3 27 1 27 17 0 13 -6 21 -17 21
-14 0 -15 -2 -4 -9 8 -5 9 -11 3 -15 -13 -8 -35 20 -27 34 4 7 16 9 27 7 12
-4 18 -1 15 6 -6 18 -46 21 -53 3z"/>
<path d="M850 720 c0 -22 5 -40 10 -40 6 0 10 18 10 40 0 22 -4 40 -10 40 -5
0 -10 -18 -10 -40z"/>
<path d="M890 750 c0 -5 5 -10 10 -10 6 0 10 -13 10 -30 0 -16 5 -30 10 -30 6
0 10 14 10 30 0 17 5 30 10 30 6 0 10 5 10 10 0 6 -13 10 -30 10 -16 0 -30 -4
-30 -10z"/>
<path d="M979 733 c-5 -16 -12 -34 -14 -40 -5 -16 7 -17 23 -1 8 8 15 8 27 -2
18 -15 19 -4 4 39 -13 38 -26 40 -40 4z m26 -13 c3 -5 1 -10 -4 -10 -6 0 -11
5 -11 10 0 6 2 10 4 10 3 0 8 -4 11 -10z"/>
<path d="M1062 723 c-2 -40 0 -43 23 -43 14 0 25 5 25 10 0 6 -9 10 -19 10
-15 0 -21 8 -24 33 -3 28 -4 26 -5 -10z"/>
<path d="M1181 718 c0 -24 3 -37 6 -30 3 7 16 18 30 23 33 12 27 43 -10 47
-26 3 -27 1 -26 -40z m39 12 c0 -5 -7 -10 -15 -10 -8 0 -15 5 -15 10 0 6 7 10
15 10 8 0 15 -4 15 -10z"/>
<path d="M1272 751 c-8 -5 -12 -21 -10 -37 3 -25 7 -29 33 -29 24 0 31 5 33
23 6 39 -25 63 -56 43z m36 -33 c-2 -13 -7 -23 -13 -23 -5 0 -11 10 -13 23 -2
15 2 22 13 22 11 0 15 -7 13 -22z"/>
<path d="M1350 751 c0 -22 24 -71 33 -68 14 4 39 77 27 77 -5 0 -13 -12 -16
-26 l-7 -27 -14 27 c-14 26 -23 33 -23 17z"/>
<path d="M1440 720 c0 -37 2 -40 28 -39 16 1 20 3 10 6 -10 2 -18 11 -18 19 0
8 8 14 18 15 14 0 14 2 -3 9 -17 7 -17 9 -2 9 27 1 20 21 -8 21 -22 0 -25 -4
-25 -40z"/>
<path d="M1520 721 c0 -23 5 -41 10 -41 6 0 10 7 10 15 0 20 17 19 30 -2 8
-14 10 -10 8 22 -3 35 -6 40 -30 43 -27 3 -28 1 -28 -37z m45 9 c-3 -5 -10
-10 -16 -10 -5 0 -9 5 -9 10 0 6 7 10 16 10 8 0 12 -4 9 -10z"/>
<path d="M1610 750 c0 -5 4 -10 9 -10 6 0 12 -15 14 -32 l4 -33 1 33 c1 17 7
32 12 32 6 0 10 5 10 10 0 6 -11 10 -25 10 -14 0 -25 -4 -25 -10z"/>
<path d="M1695 745 c4 -11 10 -30 12 -42 3 -13 9 -23 13 -23 4 0 10 10 13 23
2 12 8 31 12 42 7 19 7 19 -10 3 -17 -16 -19 -16 -33 0 -13 16 -13 15 -7 -3z"/>
</g>
</svg>
